<mxfile host="Electron" agent="Mozilla/5.0 (Windows NT 10.0; Win64; x64) AppleWebKit/537.36 (KHTML, like Gecko) draw.io/26.0.9 Chrome/128.0.6613.186 Electron/32.2.5 Safari/537.36" version="26.0.9">
  <diagram name="Page-1" id="USmncHOeGuxqA0WQbvu0">
    <mxGraphModel dx="1235" dy="740" grid="1" gridSize="10" guides="1" tooltips="1" connect="1" arrows="1" fold="1" page="1" pageScale="1" pageWidth="850" pageHeight="1100" math="0" shadow="0">
      <root>
        <mxCell id="0" />
        <mxCell id="1" parent="0" />
        <mxCell id="zy5_spX51yIGnxMiPLDl-12" value="" style="endArrow=none;dashed=1;html=1;rounded=0;entryX=0.5;entryY=1;entryDx=0;entryDy=0;" edge="1" parent="1" target="zy5_spX51yIGnxMiPLDl-7">
          <mxGeometry width="50" height="50" relative="1" as="geometry">
            <mxPoint x="185" y="480" as="sourcePoint" />
            <mxPoint x="230" y="160" as="targetPoint" />
          </mxGeometry>
        </mxCell>
        <mxCell id="zy5_spX51yIGnxMiPLDl-1" value="sd leistung vermindern" style="shape=umlFrame;whiteSpace=wrap;html=1;pointerEvents=0;" vertex="1" parent="1">
          <mxGeometry x="10" y="10" width="330" height="450" as="geometry" />
        </mxCell>
        <mxCell id="zy5_spX51yIGnxMiPLDl-2" value="" style="html=1;points=[[0,0,0,0,5],[0,1,0,0,-5],[1,0,0,0,5],[1,1,0,0,-5]];perimeter=orthogonalPerimeter;outlineConnect=0;targetShapes=umlLifeline;portConstraint=eastwest;newEdgeStyle={&quot;curved&quot;:0,&quot;rounded&quot;:0};" vertex="1" parent="1">
          <mxGeometry x="100" y="90" width="10" height="380" as="geometry" />
        </mxCell>
        <mxCell id="zy5_spX51yIGnxMiPLDl-5" value=": Steuerung" style="whiteSpace=wrap;html=1;" vertex="1" parent="1">
          <mxGeometry x="70" y="50" width="70" height="30" as="geometry" />
        </mxCell>
        <mxCell id="zy5_spX51yIGnxMiPLDl-7" value=": GerÃ¤t" style="whiteSpace=wrap;html=1;" vertex="1" parent="1">
          <mxGeometry x="155" y="50" width="60" height="30" as="geometry" />
        </mxCell>
        <mxCell id="zy5_spX51yIGnxMiPLDl-8" value="loop alle 5 sek" style="shape=umlFrame;whiteSpace=wrap;html=1;pointerEvents=0;" vertex="1" parent="1">
          <mxGeometry x="30" y="115" width="300" height="335" as="geometry" />
        </mxCell>
        <mxCell id="zy5_spX51yIGnxMiPLDl-9" value="" style="html=1;points=[[0,0,0,0,5],[0,1,0,0,-5],[1,0,0,0,5],[1,1,0,0,-5]];perimeter=orthogonalPerimeter;outlineConnect=0;targetShapes=umlLifeline;portConstraint=eastwest;newEdgeStyle={&quot;curved&quot;:0,&quot;rounded&quot;:0};" vertex="1" parent="1">
          <mxGeometry x="180" y="130" width="10" height="80" as="geometry" />
        </mxCell>
        <mxCell id="zy5_spX51yIGnxMiPLDl-10" value="pulsMessen()" style="html=1;verticalAlign=bottom;endArrow=block;curved=0;rounded=0;entryX=0;entryY=0;entryDx=0;entryDy=5;" edge="1" target="zy5_spX51yIGnxMiPLDl-9" parent="1">
          <mxGeometry relative="1" as="geometry">
            <mxPoint x="110" y="135" as="sourcePoint" />
          </mxGeometry>
        </mxCell>
        <mxCell id="zy5_spX51yIGnxMiPLDl-11" value="int" style="html=1;verticalAlign=bottom;endArrow=open;dashed=1;endSize=8;curved=0;rounded=0;exitX=0;exitY=1;exitDx=0;exitDy=-5;" edge="1" source="zy5_spX51yIGnxMiPLDl-9" parent="1">
          <mxGeometry relative="1" as="geometry">
            <mxPoint x="110" y="205" as="targetPoint" />
          </mxGeometry>
        </mxCell>
        <mxCell id="zy5_spX51yIGnxMiPLDl-13" value="alt" style="shape=umlFrame;whiteSpace=wrap;html=1;pointerEvents=0;" vertex="1" parent="1">
          <mxGeometry x="40" y="230" width="280" height="210" as="geometry" />
        </mxCell>
        <mxCell id="zy5_spX51yIGnxMiPLDl-14" value="" style="endArrow=none;html=1;rounded=0;exitX=-0.007;exitY=0.522;exitDx=0;exitDy=0;exitPerimeter=0;entryX=1.009;entryY=0.52;entryDx=0;entryDy=0;entryPerimeter=0;" edge="1" parent="1" source="zy5_spX51yIGnxMiPLDl-13" target="zy5_spX51yIGnxMiPLDl-13">
          <mxGeometry width="50" height="50" relative="1" as="geometry">
            <mxPoint x="160" y="240" as="sourcePoint" />
            <mxPoint x="210" y="190" as="targetPoint" />
          </mxGeometry>
        </mxCell>
        <mxCell id="zy5_spX51yIGnxMiPLDl-15" value="[ puls &amp;gt;&amp;nbsp;&lt;div&gt;max wert]&lt;/div&gt;" style="text;html=1;align=center;verticalAlign=middle;resizable=0;points=[];autosize=1;strokeColor=none;fillColor=none;" vertex="1" parent="1">
          <mxGeometry x="30" y="255" width="80" height="40" as="geometry" />
        </mxCell>
        <mxCell id="zy5_spX51yIGnxMiPLDl-16" value="[ puls &amp;lt;&amp;nbsp;&lt;div&gt;max wert]&lt;/div&gt;" style="text;html=1;align=center;verticalAlign=middle;resizable=0;points=[];autosize=1;strokeColor=none;fillColor=none;" vertex="1" parent="1">
          <mxGeometry x="30" y="350" width="80" height="40" as="geometry" />
        </mxCell>
        <mxCell id="zy5_spX51yIGnxMiPLDl-19" value="" style="html=1;points=[[0,0,0,0,5],[0,1,0,0,-5],[1,0,0,0,5],[1,1,0,0,-5]];perimeter=orthogonalPerimeter;outlineConnect=0;targetShapes=umlLifeline;portConstraint=eastwest;newEdgeStyle={&quot;curved&quot;:0,&quot;rounded&quot;:0};" vertex="1" parent="1">
          <mxGeometry x="180" y="247.5" width="10" height="80" as="geometry" />
        </mxCell>
        <mxCell id="zy5_spX51yIGnxMiPLDl-20" value="stufe vermindern" style="html=1;verticalAlign=bottom;endArrow=block;curved=0;rounded=0;entryX=0;entryY=0;entryDx=0;entryDy=5;" edge="1" target="zy5_spX51yIGnxMiPLDl-19" parent="1">
          <mxGeometry relative="1" as="geometry">
            <mxPoint x="110" y="252.5" as="sourcePoint" />
          </mxGeometry>
        </mxCell>
        <mxCell id="zy5_spX51yIGnxMiPLDl-21" value="" style="html=1;verticalAlign=bottom;endArrow=open;dashed=1;endSize=8;curved=0;rounded=0;exitX=0;exitY=1;exitDx=0;exitDy=-5;" edge="1" source="zy5_spX51yIGnxMiPLDl-19" parent="1">
          <mxGeometry relative="1" as="geometry">
            <mxPoint x="110" y="322.5" as="targetPoint" />
          </mxGeometry>
        </mxCell>
      </root>
    </mxGraphModel>
  </diagram>
</mxfile>
